<svg xmlns="http://www.w3.org/2000/svg" version="1.1" xmlns:xlink="http://www.w3.org/1999/xlink" xmlns:svgjs="http://svgjs.dev/svgjs" width="1500" height="1500" viewBox="0 0 1500 1500"><rect width="1500" height="1500" fill="#000000"></rect><g transform="matrix(0.6666666666666666,0,0,0.6666666666666666,249.39393939393938,578.4920750909928)"><svg viewBox="0 0 396 136" data-background-color="#ffffff" preserveAspectRatio="xMidYMid meet" height="515" width="1500" xmlns="http://www.w3.org/2000/svg" xmlns:xlink="http://www.w3.org/1999/xlink"><g id="tight-bounds" transform="matrix(1,0,0,1,0.2400000000000091,-0.06288023021849654)"><svg viewBox="0 0 395.52 136.12547490721025" height="136.12547490721025" width="395.52"><g><svg viewBox="0 0 659.5420776811267 226.99352383098588" height="136.12547490721025" width="395.52"><g transform="matrix(1,0,0,1,0,82.12673374647886)"><svg viewBox="0 0 395.52 62.74005633802816" height="62.74005633802816" width="395.52"><g id="textblocktransform"><svg viewBox="0 0 395.52 62.74005633802816" height="62.74005633802816" width="395.52" id="textblock"><g><svg viewBox="0 0 395.52 62.74005633802816" height="62.74005633802816" width="395.52"><g transform="matrix(1,0,0,1,0,0)"><svg width="395.52" viewBox="1.25 -36 283.97 45.05" height="62.74005633802816" data-palette-color="#264f0b"><path d="M1.25-34.3L27.65-34.3 27.65-29.85 16.9-29.85 16.9 0 12 0 12-29.85 1.25-29.85 1.25-34.3ZM41.2-26.05Q44.75-26.05 46.75-23.78 48.75-21.5 48.75-18.05L48.75-18.05 48.6-16.15 44.45-16.15 44.45-17.25Q44.45-18.75 43.7-19.9 42.95-21.05 41.8-21.68 40.65-22.3 39.5-22.3L39.5-22.3Q37.1-22.3 35.75-20.4 34.4-18.5 34.4-15.25L34.4-15.25 34.4 0 29.7 0 29.7-25.55 33.05-25.55 33.75-21.75Q34.05-22.75 35.1-23.75 36.15-24.75 37.72-25.4 39.3-26.05 41.2-26.05L41.2-26.05ZM54.09-36L59-36 59-31.65 54.09-31.65 54.09-36ZM54.2-25.55L58.9-25.55 58.9 0 54.2 0 54.2-25.55ZM79.24-26.05Q84.09-26.05 86.84-22.5 89.59-18.95 89.59-12.75L89.59-12.75 89.59-12.2Q89.59-6.3 86.87-2.9 84.14 0.5 79.24 0.5L79.24 0.5Q74.54 0.5 71.89-3.25L71.89-3.25 71.89 9.05 67.19 9.05 67.19-25.55 70.69-25.55Q71.04-23.95 71.34-22.05L71.34-22.05Q74.19-26.05 79.24-26.05L79.24-26.05ZM78.39-22.3Q74.99-22.3 73.42-19.95 71.84-17.6 71.84-12.8L71.84-12.8Q71.84-7.9 73.47-5.58 75.09-3.25 78.39-3.25L78.39-3.25Q81.69-3.25 83.29-5.6 84.89-7.95 84.89-12.8L84.89-12.8Q84.89-17.7 83.27-20 81.64-22.3 78.39-22.3L78.39-22.3ZM120.59-26.05Q125.44-26.05 128.19-22.5 130.94-18.95 130.94-12.75L130.94-12.75 130.94-12.2Q130.94-6.3 128.21-2.9 125.49 0.5 120.59 0.5L120.59 0.5Q115.89 0.5 113.24-3.25L113.24-3.25 113.24 9.05 108.54 9.05 108.54-25.55 112.04-25.55Q112.39-23.95 112.69-22.05L112.69-22.05Q115.54-26.05 120.59-26.05L120.59-26.05ZM119.74-22.3Q116.34-22.3 114.76-19.95 113.19-17.6 113.19-12.8L113.19-12.8Q113.19-7.9 114.81-5.58 116.44-3.25 119.74-3.25L119.74-3.25Q123.04-3.25 124.64-5.6 126.24-7.95 126.24-12.8L126.24-12.8Q126.24-17.7 124.61-20 122.99-22.3 119.74-22.3L119.74-22.3ZM147.74-26.05Q152.79-26.05 155.26-24.05 157.74-22.05 157.74-18.25L157.74-18.25 157.74-5Q157.74-4.1 158.14-3.68 158.54-3.25 159.14-3.25L159.14-3.25Q160.29-3.25 161.44-3.95L161.44-3.95 161.44-0.5Q159.74 0.5 157.59 0.5L157.59 0.5Q155.44 0.5 154.39-0.73 153.34-1.95 153.24-4.1L153.24-4.1Q150.14 0.5 144.29 0.5L144.29 0.5Q140.09 0.5 138.01-1.33 135.94-3.15 135.94-7.1L135.94-7.1Q135.94-10.2 137.54-11.98 139.14-13.75 142.84-14.55 146.54-15.35 153.04-15.35L153.04-15.35 153.04-17.7Q153.04-20.25 151.54-21.28 150.04-22.3 147.19-22.3L147.19-22.3Q144.49-22.3 142.99-21.25 141.49-20.2 141.49-18.3L141.49-18.3 141.49-17.7 136.89-17.7Q136.79-18.4 136.79-19.35L136.79-19.35Q136.79-21.1 138.19-22.65 139.59-24.2 141.99-25.13 144.39-26.05 147.29-26.05L147.29-26.05 147.74-26.05ZM153.04-11.7Q147.79-11.7 145.11-11.18 142.44-10.65 141.54-9.6 140.64-8.55 140.64-6.7L140.64-6.7Q140.64-3.25 145.89-3.25L145.89-3.25Q147.74-3.25 149.39-4.17 151.04-5.1 152.04-6.8 153.04-8.5 153.04-10.7L153.04-10.7 153.04-11.7ZM178.43-26.05Q181.98-26.05 183.98-23.78 185.98-21.5 185.98-18.05L185.98-18.05 185.83-16.15 181.68-16.15 181.68-17.25Q181.68-18.75 180.93-19.9 180.18-21.05 179.03-21.68 177.88-22.3 176.73-22.3L176.73-22.3Q174.33-22.3 172.98-20.4 171.63-18.5 171.63-15.25L171.63-15.25 171.63 0 166.93 0 166.93-25.55 170.28-25.55 170.98-21.75Q171.28-22.75 172.33-23.75 173.38-24.75 174.96-25.4 176.53-26.05 178.43-26.05L178.43-26.05ZM196.93-33.7L196.93-25.55 202.88-25.55 202.88-21.8 196.93-21.8 196.93-6.55Q196.93-4.75 197.63-3.95 198.33-3.15 199.78-3.15L199.78-3.15Q201.08-3.15 202.88-3.9L202.88-3.9 202.88-0.4Q201.08 0.5 198.23 0.5L198.23 0.5Q195.28 0.5 193.76-1.25 192.23-3 192.23-6.8L192.23-6.8 192.23-21.8 189.43-21.8 189.43-25.55 192.38-25.55 193.98-33.7 196.93-33.7ZM221.33-26.05Q225.53-26.05 227.93-23.8 230.33-21.55 230.33-17.2L230.33-17.2 230.33 0 225.63 0 225.63-16.35Q225.63-22.3 220.23-22.3L220.23-22.3Q218.43-22.3 216.88-21.35 215.33-20.4 214.38-18.78 213.43-17.15 213.43-15.2L213.43-15.2 213.43 0 208.73 0 208.73-25.55 212.13-25.55 212.78-21.8Q215.98-26.05 221.33-26.05L221.33-26.05ZM248.63-26.05Q251.78-26.05 254.2-24.73 256.63-23.4 257.98-20.95 259.33-18.5 259.33-15.25L259.33-15.25 259.33-11.7 241.48-11.7Q241.58-7.65 243.38-5.45 245.18-3.25 248.73-3.25L248.73-3.25Q251.88-3.25 253.38-5.1 254.88-6.95 254.88-9.5L254.88-9.5 259.33-9.5Q259.33-6.5 257.95-4.25 256.58-2 254.15-0.75 251.73 0.5 248.63 0.5L248.63 0.5 248.43 0.5Q243.03 0.5 239.9-2.98 236.78-6.45 236.78-12.25L236.78-12.25 236.78-13.25Q236.78-17.05 238.18-19.95 239.58-22.85 242.18-24.45 244.78-26.05 248.28-26.05L248.28-26.05 248.63-26.05ZM248.38-22.3Q245.53-22.3 243.75-20.55 241.98-18.8 241.58-15.35L241.58-15.35 254.68-15.35 254.68-15.95Q254.68-18.8 252.95-20.55 251.23-22.3 248.38-22.3L248.38-22.3ZM277.67-26.05Q281.22-26.05 283.22-23.78 285.22-21.5 285.22-18.05L285.22-18.05 285.07-16.15 280.92-16.15 280.92-17.25Q280.92-18.75 280.17-19.9 279.42-21.05 278.27-21.68 277.12-22.3 275.97-22.3L275.97-22.3Q273.57-22.3 272.22-20.4 270.87-18.5 270.87-15.25L270.87-15.25 270.87 0 266.17 0 266.17-25.55 269.52-25.55 270.22-21.75Q270.52-22.75 271.57-23.75 272.62-24.75 274.2-25.4 275.77-26.05 277.67-26.05L277.67-26.05Z" opacity="1" transform="matrix(1,0,0,1,0,0)" fill="#ffffff" class="wordmark-text-0" data-fill-palette-color="primary" id="text-0"></path></svg></g></svg></g></svg></g></svg></g><g transform="matrix(1,0,0,1,432.5485538501408,0)"><svg viewBox="0 0 226.99352383098588 226.99352383098588" height="226.99352383098588" width="226.99352383098588"><g><svg viewBox="0 0 226.99352383098588 226.99352383098588" height="226.99352383098588" width="226.99352383098588"><g transform="matrix(1,0,0,1,81.4423644367981,59.99387525338618)"><svg viewBox="0 0 64.10879495738968 107.00577332421352" height="107.00577332421352" width="64.10879495738968"><g><svg xmlns="http://www.w3.org/2000/svg" xmlns:xlink="http://www.w3.org/1999/xlink" version="1.1" x="0" y="0" viewBox="24.449035868661355 8.367000163494922 53.91938533509659 89.99834622976657" enable-background="new 21.454 3.367 59.909 100" xml:space="preserve" height="107.00577332421352" width="64.10879495738968" class="icon-cg-0" data-fill-palette-color="accent" id="cg-0"><path d="M78.201 87.271l-8.846-24.826c-0.513-1.441-2.067-2.225-3.531-1.784l-6.495 1.957c-0.931 0.281-1.609 0.992-1.892 1.85l-2.565-7.764c0.624-0.002 1.247-0.22 1.735-0.667 1.075-0.96 1.042-2.515 0.198-3.683-0.616-0.852-1.25-2.171-2.16-3.61-3.706-5.858-8.607-22.055-8.607-22.055-0.045-0.088-0.104-0.169-0.168-0.246-0.658-1.404-2.193-2.138-4.042-2.424-2.662-0.413-5.012 0.22-5.586 3.13l-4.675 28.365c-0.48 2.433-0.747 3.667-0.782 4.956-0.129 4.67-3.379 34.923-3.379 34.923-0.128 1.005 0.816 2.775 2.237 2.957 1.42 0.182 2.779-1.295 2.908-2.3l10.223-37.603c0.001-0.02-0.014-0.031-0.017-0.049 0.092-0.355 0.17-0.742 0.221-1.198l1.58-14.228c2.175 4.065 4.644 8.332 6.573 10.717 0.145 0.179 0.418 0.51 0.708 0.859l-0.816 0.284 0.772 2.217 0.152-0.053 11.604 35.114c-0.885 0.611-1.467 1.631-1.467 2.789 0 1.873 1.518 3.391 3.391 3.391 1.873 0 3.391-1.518 3.391-3.391 0-0.561-0.149-1.083-0.391-1.549 0.053-0.013 0.106-0.02 0.159-0.035l7.698-2.335C77.899 90.505 78.751 88.815 78.201 87.271z" fill="#ffffff" data-fill-palette-color="accent"></path><circle cx="42.221" cy="15.511" r="7.1" fill="#ffffff" data-fill-palette-color="accent"></circle><path d="M49.063 94.18l-5.627-34.193L38.831 76.92l5.241 18.671c0.275 0.974 1.838 2.234 3.215 1.844C48.667 97.045 49.338 95.154 49.063 94.18z" fill="#ffffff" data-fill-palette-color="accent"></path><path d="M32.773 40.885l0.082-0.556c0.638-4.34 1.113-7.443 1.432-9.373-1.913 3.663-5.663 10.882-8.988 17.531-0.265 0.531-1.313 2.863-0.613 4.038 0.288 0.484 0.82 0.769 1.41 0.93 1.818 0.497 4.345-4.079 4.843-5.026 0.367-0.698 0.722-1.364 1.068-2.009l0.49-2.977C32.59 42.416 32.683 41.48 32.773 40.885z" fill="#ffffff" data-fill-palette-color="accent"></path></svg></g></svg></g><g id="text-0"><path d="M1.204 80.581l4.504-13.335 2.251 0.76-1.833 5.427 15.071 5.09-0.838 2.481-15.071-5.091-1.833 5.428z" fill="#ffffff" data-fill-palette-color="accent"></path><path d="M19.132 51.206c0.65-1.081 1.502-1.717 2.555-1.906 1.063-0.191 2.117 0.028 3.165 0.658v0l0.83 0.593-1.136 1.889-0.501-0.301c-0.46-0.277-0.935-0.406-1.424-0.386-0.483 0.023-0.929 0.15-1.335 0.384-0.401 0.237-0.705 0.528-0.913 0.873v0c-0.443 0.736-0.496 1.483-0.161 2.241 0.335 0.758 0.998 1.434 1.987 2.029v0l6.964 4.187-1.292 2.148-11.674-7.02 0.918-1.527 1.926 0.724c-0.244-0.272-0.421-0.661-0.532-1.166-0.115-0.5-0.127-1.052-0.038-1.656 0.092-0.595 0.312-1.183 0.661-1.764z" fill="#ffffff" data-fill-palette-color="accent"></path><path d="M26.876 32.37l1.755-1.943 1.718 1.553-1.754 1.942zM31.048 36.057l1.681-1.86 10.108 9.131-1.68 1.861z" fill="#ffffff" data-fill-palette-color="accent"></path><path d="M50.498 19.089c1.398-0.999 2.862-1.271 4.393-0.814 1.531 0.457 2.937 1.58 4.217 3.371v0l0.17 0.238c1.218 1.704 1.782 3.33 1.693 4.879-0.084 1.545-0.833 2.823-2.246 3.834v0c-1.36 0.972-2.808 1.191-4.346 0.656v0l3.812 5.331-2.039 1.458-10.727-15.004 1.515-1.083c0.436 0.39 0.891 0.831 1.368 1.324v0c-0.003-1.747 0.727-3.144 2.19-4.19zM51.289 20.974c-0.983 0.703-1.46 1.559-1.431 2.57 0.031 1.001 0.542 2.195 1.534 3.582v0c1.015 1.42 1.997 2.297 2.947 2.633 0.95 0.336 1.902 0.162 2.858-0.521v0c0.95-0.679 1.415-1.523 1.395-2.532-0.024-1.014-0.537-2.223-1.541-3.626v0c-1.011-1.414-1.989-2.287-2.935-2.617-0.946-0.33-1.888-0.16-2.827 0.511z" fill="#ffffff" data-fill-palette-color="accent"></path><path d="M93.715 1.464c1.684-0.343 3.132 0.005 4.344 1.046 1.212 1.041 2.038 2.639 2.479 4.797v0l0.058 0.286c0.418 2.052 0.272 3.767-0.441 5.145-0.706 1.377-1.91 2.239-3.613 2.587v0c-1.638 0.334-3.05-0.056-4.236-1.171v0l1.31 6.422-2.457 0.501-3.685-18.073 1.825-0.372c0.239 0.534 0.475 1.122 0.709 1.767v0c0.709-1.597 1.944-2.575 3.707-2.935zM93.67 3.508c-1.184 0.241-1.968 0.829-2.353 1.764-0.38 0.927-0.399 2.225-0.059 3.896v0c0.349 1.71 0.888 2.912 1.619 3.606 0.731 0.694 1.671 0.923 2.823 0.688v0c1.144-0.233 1.913-0.815 2.305-1.744 0.391-0.936 0.415-2.249 0.07-3.94v0c-0.347-1.703-0.886-2.899-1.615-3.585-0.729-0.687-1.659-0.915-2.79-0.685z" fill="#ffffff" data-fill-palette-color="accent"></path><path d="M120.913 0.031c1.789 0.106 3.101 0.54 3.937 1.302 0.836 0.762 1.213 1.817 1.133 3.164v0l-0.418 7.045c-0.019 0.322 0.037 0.56 0.17 0.716 0.138 0.163 0.311 0.25 0.519 0.263v0c0.409 0.024 0.825-0.075 1.248-0.299v0l-0.109 1.839c-0.624 0.313-1.317 0.446-2.082 0.401v0c-0.764-0.045-1.317-0.293-1.66-0.744-0.349-0.458-0.518-1.07-0.506-1.835v0c-1.195 1.563-2.832 2.283-4.909 2.16v0c-1.487-0.088-2.581-0.476-3.28-1.163-0.698-0.694-1.006-1.741-0.923-3.141v0c0.065-1.099 0.401-1.946 1.008-2.543 0.6-0.596 1.565-0.996 2.896-1.199 1.33-0.21 3.148-0.247 5.452-0.111v0l0.074-1.246c0.054-0.905-0.173-1.553-0.681-1.947-0.507-0.4-1.267-0.63-2.279-0.689v0c-0.958-0.057-1.716 0.086-2.274 0.429-0.552 0.344-0.847 0.851-0.887 1.521v0l-0.019 0.322-2.453-0.146c-0.019-0.25-0.018-0.542 0.002-0.877v0c0.037-0.623 0.32-1.195 0.848-1.715 0.528-0.52 1.228-0.919 2.098-1.196 0.87-0.278 1.822-0.386 2.854-0.325v0zM123.274 7.836c-1.863-0.11-3.272-0.103-4.227 0.022-0.963 0.131-1.612 0.375-1.95 0.731-0.343 0.349-0.535 0.852-0.574 1.509v0c-0.073 1.226 0.822 1.894 2.685 2.005v0c0.657 0.039 1.286-0.088 1.889-0.382 0.609-0.293 1.106-0.731 1.49-1.313 0.391-0.582 0.609-1.262 0.655-2.039v0z" fill="#ffffff" data-fill-palette-color="accent"></path><path d="M149.342 5.525c1.207 0.368 2.03 1.04 2.469 2.017 0.443 0.984 0.487 2.061 0.131 3.229v0l-0.374 0.949-2.109-0.644 0.17-0.558c0.157-0.514 0.166-1.005 0.029-1.475-0.139-0.464-0.371-0.864-0.696-1.202-0.327-0.331-0.683-0.556-1.068-0.674v0c-0.822-0.251-1.559-0.121-2.213 0.388-0.654 0.509-1.149 1.316-1.486 2.42v0l-2.372 7.771-2.397-0.731 3.976-13.029 1.704 0.52-0.234 2.044c0.205-0.302 0.539-0.569 1.001-0.799 0.457-0.233 0.989-0.379 1.598-0.439 0.599-0.056 1.223 0.015 1.871 0.213z" fill="#ffffff" data-fill-palette-color="accent"></path><path d="M171.714 11.173l-2.123 3.785 2.766 1.551-0.98 1.748-2.766-1.552-3.975 7.086c-0.315 0.562-0.434 1.027-0.355 1.394 0.079 0.367 0.343 0.677 0.794 0.93v0c0.404 0.227 0.948 0.382 1.632 0.466v0l-0.911 1.624c-0.71-0.037-1.508-0.303-2.392-0.799v0c-0.913-0.512-1.456-1.171-1.627-1.975-0.169-0.81 0.077-1.804 0.736-2.981v0l3.912-6.971-1.3-0.73 0.98-1.747 1.37 0.769 2.87-3.366z" fill="#ffffff" data-fill-palette-color="accent"></path><path d="M190.137 29.973c1.116 0.988 1.728 2.063 1.837 3.226 0.109 1.163-0.348 2.323-1.371 3.478v0l-6.079 6.869-1.877-1.661 5.778-6.53c1.401-1.583 1.386-3.009-0.047-4.276v0c-0.483-0.427-1.043-0.695-1.682-0.803-0.635-0.113-1.269-0.065-1.903 0.144-0.634 0.21-1.18 0.574-1.638 1.092v0l-5.371 6.069-1.877-1.661 9.027-10.202 1.357 1.201-1.071 1.728c1.855-0.375 3.494 0.067 4.917 1.326z" fill="#ffffff" data-fill-palette-color="accent"></path><path d="M207.6 50.958c0.622 0.932 0.978 1.889 1.068 2.87 0.086 0.975-0.101 1.904-0.562 2.785-0.458 0.886-1.166 1.65-2.127 2.291v0l-1.575 1.05-5.281-7.913c-1.176 0.825-1.911 1.719-2.205 2.681-0.295 0.972-0.093 1.983 0.608 3.033v0c0.619 0.927 1.35 1.431 2.195 1.512 0.841 0.076 1.639-0.138 2.393-0.641v0l1.319 1.977c-0.888 0.592-1.8 0.907-2.736 0.942-0.936 0.036-1.827-0.181-2.673-0.649-0.845-0.469-1.575-1.164-2.19-2.085v0l-0.056-0.084c-1.066-1.597-1.394-3.201-0.985-4.813 0.407-1.603 1.47-2.978 3.189-4.126v0l0.436-0.291c1.128-0.753 2.257-1.207 3.386-1.364 1.135-0.161 2.195-0.012 3.178 0.445 0.989 0.454 1.828 1.197 2.517 2.23v0zM205.869 51.956c-0.563-0.843-1.279-1.354-2.148-1.532-0.869-0.178-1.851 0.013-2.946 0.574v0l3.879 5.812 0.26-0.173c0.843-0.563 1.353-1.274 1.529-2.135 0.18-0.855-0.011-1.703-0.574-2.546z" fill="#ffffff" data-fill-palette-color="accent"></path><path d="M219.849 76.245c0.435 1.185 0.395 2.246-0.118 3.185-0.517 0.948-1.349 1.632-2.496 2.053v0l-0.982 0.275-0.76-2.07 0.548-0.201c0.504-0.185 0.902-0.474 1.194-0.867 0.286-0.391 0.465-0.818 0.538-1.281 0.067-0.461 0.031-0.88-0.107-1.258v0c-0.296-0.807-0.844-1.317-1.645-1.531-0.801-0.214-1.743-0.122-2.827 0.276v0l-7.627 2.799-0.864-2.353 12.788-4.693 0.614 1.673-1.771 1.047c0.365-0.019 0.779 0.086 1.242 0.316 0.461 0.224 0.899 0.56 1.314 1.008 0.406 0.444 0.726 0.985 0.959 1.622z" fill="#ffffff" data-fill-palette-color="accent"></path><path d="M23.483 136.223l4.772 13.977-2.353 0.804-1.942-5.689-15.807 5.397-0.885-2.591 15.807-5.397-1.945-5.698z" fill="#ffffff" data-fill-palette-color="accent"></path><path d="M31.774 165.968c0.684 1.132 0.854 2.237 0.509 3.316-0.338 1.075-1.059 1.946-2.162 2.612v0l-0.955 0.483-1.203-1.99 0.535-0.323c0.477-0.288 0.828-0.661 1.053-1.119 0.222-0.463 0.319-0.938 0.292-1.424-0.021-0.489-0.143-0.918-0.365-1.285v0c-0.462-0.764-1.124-1.179-1.988-1.246-0.869-0.063-1.824 0.22-2.863 0.849v0l-7.299 4.41-1.359-2.249 12.236-7.394 0.969 1.603-1.615 1.434c0.371-0.099 0.821-0.076 1.347 0.069 0.517 0.142 1.032 0.404 1.544 0.784 0.515 0.371 0.956 0.861 1.324 1.47z" fill="#ffffff" data-fill-palette-color="accent"></path><path d="M45.73 174.993l1.836 2.032-1.801 1.626-1.835-2.032zM41.437 178.952l1.761 1.95-10.61 9.582-1.761-1.95z" fill="#ffffff" data-fill-palette-color="accent"></path><path d="M58.95 193.443c1.473 1.056 2.24 2.423 2.3 4.101 0.059 1.669-0.586 3.445-1.935 5.327v0l-0.176 0.246c-1.283 1.789-2.705 2.904-4.269 3.344-1.568 0.437-3.094 0.123-4.578-0.94v0c-1.424-1.021-2.128-2.388-2.112-4.103v0l-4.013 5.597-2.135-1.531 11.279-15.736 1.588 1.138c-0.239 0.564-0.522 1.166-0.849 1.807v0c1.739-0.595 3.373-0.345 4.9 0.75zM57.339 194.878c-1.031-0.739-2.038-0.924-3.021-0.556-0.992 0.371-2.011 1.284-3.054 2.741v0c-1.064 1.484-1.602 2.754-1.616 3.809-0.008 1.06 0.487 1.947 1.486 2.663v0c0.998 0.716 1.994 0.893 2.988 0.532 0.998-0.367 2.023-1.284 3.074-2.751v0c1.068-1.489 1.604-2.756 1.61-3.801 0.01-1.05-0.479-1.929-1.467-2.637z" fill="#ffffff" data-fill-palette-color="accent"></path><path d="M96.352 208.6c1.774 0.369 3.029 1.309 3.763 2.82 0.729 1.502 0.858 3.387 0.385 5.654v0l-0.061 0.296c-0.449 2.155-1.299 3.751-2.549 4.786-1.257 1.034-2.78 1.365-4.568 0.993v0c-1.715-0.357-2.913-1.323-3.592-2.897v0l-1.404 6.742-2.573-0.536 3.947-18.955 1.912 0.399c0.01 0.612-0.005 1.278-0.045 1.996v0c1.35-1.248 2.945-1.68 4.785-1.298zM95.459 210.564c-1.242-0.259-2.238-0.02-2.987 0.715-0.757 0.74-1.319 1.988-1.684 3.742v0c-0.372 1.787-0.351 3.166 0.064 4.138 0.421 0.972 1.233 1.583 2.436 1.833v0c1.203 0.25 2.185 0.009 2.948-0.723 0.764-0.739 1.33-1.992 1.698-3.76v0c0.374-1.794 0.351-3.17-0.066-4.127-0.416-0.964-1.219-1.57-2.409-1.818z" fill="#ffffff" data-fill-palette-color="accent"></path><path d="M119.799 209.822c1.883-0.106 3.305 0.19 4.266 0.889 0.967 0.692 1.49 1.745 1.569 3.158v0l0.417 7.399c0.019 0.335 0.107 0.579 0.263 0.731 0.156 0.146 0.348 0.212 0.576 0.2v0c0.422-0.024 0.841-0.175 1.255-0.454v0l0.108 1.92c-0.609 0.411-1.315 0.639-2.119 0.684v0c-0.797 0.045-1.403-0.149-1.818-0.584-0.421-0.433-0.671-1.051-0.75-1.853v0c-1.063 1.781-2.683 2.733-4.861 2.855v0c-1.561 0.088-2.747-0.188-3.556-0.828-0.815-0.633-1.265-1.687-1.347-3.161v0c-0.065-1.153 0.182-2.074 0.741-2.764 0.559-0.697 1.52-1.235 2.884-1.615 1.357-0.372 3.249-0.627 5.675-0.763v0l-0.074-1.317c-0.053-0.945-0.372-1.592-0.957-1.943-0.578-0.351-1.396-0.496-2.455-0.437v0c-1.012 0.057-1.785 0.296-2.319 0.716-0.534 0.427-0.781 0.992-0.742 1.696v0l0.019 0.331-2.573 0.145c-0.048-0.253-0.082-0.557-0.102-0.912v0c-0.037-0.65 0.187-1.281 0.67-1.893 0.49-0.606 1.175-1.105 2.053-1.497 0.872-0.399 1.847-0.628 2.926-0.689v0zM123.217 217.676c-1.957 0.11-3.429 0.291-4.417 0.541-0.981 0.25-1.628 0.582-1.94 0.997-0.313 0.408-0.45 0.956-0.412 1.647v0c0.072 1.28 1.083 1.865 3.034 1.755v0c0.69-0.039 1.334-0.247 1.931-0.623 0.591-0.376 1.056-0.893 1.395-1.551 0.34-0.651 0.486-1.389 0.44-2.213v0z" fill="#ffffff" data-fill-palette-color="accent"></path><path d="M144.977 204.976c1.266-0.382 2.379-0.273 3.338 0.329 0.958 0.594 1.623 1.508 1.995 2.742v0l0.231 1.045-2.226 0.672-0.181-0.598c-0.161-0.533-0.435-0.966-0.822-1.297-0.394-0.33-0.83-0.542-1.307-0.637-0.479-0.101-0.924-0.089-1.336 0.035v0c-0.855 0.258-1.421 0.797-1.699 1.617-0.276 0.827-0.239 1.821 0.112 2.985v0l2.464 8.164-2.516 0.759-4.131-13.687 1.793-0.541 0.99 1.92c-0.004-0.384 0.129-0.814 0.4-1.288 0.266-0.466 0.647-0.9 1.142-1.301 0.487-0.406 1.071-0.713 1.753-0.919z" fill="#ffffff" data-fill-palette-color="accent"></path><path d="M160.249 193.383l2.214 3.987 2.914-1.619 1.021 1.84-2.913 1.618 4.141 7.455c0.326 0.587 0.677 0.949 1.053 1.085 0.372 0.131 0.796 0.065 1.271-0.199v0c0.422-0.235 0.859-0.638 1.308-1.211v0l0.954 1.716c-0.424 0.619-1.102 1.188-2.035 1.707v0c-0.956 0.531-1.842 0.651-2.657 0.359-0.818-0.298-1.571-1.066-2.259-2.304v0l-4.073-7.332-1.373 0.763-1.022-1.84 1.444-0.802-1.432-4.422z" fill="#ffffff" data-fill-palette-color="accent"></path><path d="M180.242 183.752c1.177-1.03 2.38-1.526 3.609-1.486 1.224 0.043 2.371 0.676 3.441 1.898v0l6.34 7.243-1.978 1.731-6.027-6.887c-1.459-1.667-2.946-1.837-4.461-0.511v0c-0.505 0.442-0.86 0.989-1.065 1.642-0.204 0.643-0.237 1.309-0.098 1.998 0.13 0.689 0.434 1.306 0.912 1.852v0l5.603 6.401-1.978 1.731-9.416-10.758 1.432-1.253 1.659 1.344c-0.154-1.979 0.522-3.628 2.027-4.945z" fill="#ffffff" data-fill-palette-color="accent"></path><path d="M195.328 165.618c0.656-0.974 1.444-1.698 2.362-2.172 0.918-0.474 1.897-0.664 2.935-0.571 1.038 0.093 2.061 0.479 3.069 1.157v0l1.644 1.109-5.582 8.282c1.271 0.816 2.434 1.175 3.488 1.076 1.054-0.099 1.953-0.699 2.696-1.802v0c0.656-0.974 0.857-1.883 0.6-2.728-0.262-0.848-0.788-1.539-1.579-2.071v0l1.396-2.071c0.929 0.626 1.598 1.388 2.004 2.286 0.411 0.892 0.555 1.843 0.433 2.853-0.117 1.014-0.498 2-1.143 2.957v0l-0.062 0.092c-1.125 1.67-2.552 2.627-4.279 2.872-1.723 0.239-3.484-0.247-5.281-1.46v0l-0.459-0.309c-1.174-0.792-2.068-1.705-2.681-2.742-0.604-1.038-0.881-2.128-0.833-3.268 0.045-1.135 0.433-2.246 1.165-3.331v0zM196.994 166.911c-0.593 0.879-0.805 1.777-0.636 2.691 0.172 0.909 0.75 1.788 1.732 2.637v0l4.096-6.078-0.275-0.186c-0.885-0.596-1.776-0.812-2.672-0.647-0.9 0.17-1.648 0.698-2.245 1.583z" fill="#ffffff" data-fill-palette-color="accent"></path><path d="M206.134 143.367c0.461-1.239 1.221-2.059 2.28-2.46 1.052-0.403 2.183-0.38 3.391 0.07v0l0.972 0.447-0.811 2.18-0.585-0.218c-0.522-0.194-1.032-0.237-1.531-0.129-0.501 0.114-0.933 0.333-1.297 0.656-0.37 0.321-0.63 0.682-0.78 1.085v0c-0.311 0.837-0.225 1.614 0.26 2.331 0.491 0.72 1.306 1.292 2.445 1.716v0l7.992 2.974-0.917 2.463-13.399-4.987 0.654-1.755 2.128 0.373c-0.309-0.229-0.57-0.595-0.784-1.097-0.21-0.494-0.325-1.059-0.346-1.698-0.029-0.634 0.081-1.284 0.328-1.951z" fill="#ffffff" data-fill-palette-color="accent"></path><path d="M1.038 112.169c0-4.049 3.282-7.33 7.33-7.331 4.049 0 7.33 3.282 7.331 7.331 0 4.049-3.282 7.33-7.331 7.33-4.049 0-7.33-3.282-7.33-7.33z" fill="#ffffff" data-fill-palette-color="accent"></path><path d="M211.295 112.169c0-4.049 3.282-7.33 7.33-7.331 4.049 0 7.33 3.282 7.331 7.331 0 4.049-3.282 7.33-7.331 7.33-4.049 0-7.33-3.282-7.33-7.33z" fill="#ffffff" data-fill-palette-color="accent"></path></g><g id="text-1"></g></svg></g></svg></g></svg></g><defs></defs></svg><rect width="395.52" height="136.12547490721025" fill="none" stroke="none" visibility="hidden"></rect></g></svg></g></svg>